<?xml version="1.0" encoding="UTF-8" standalone="no"?>
<!-- Generator: Adobe Illustrator 12.0.0, SVG Export Plug-In . SVG Version: 6.00 Build 51448)  -->

<svg
   xmlns:dc="http://purl.org/dc/elements/1.1/"
   xmlns:cc="http://creativecommons.org/ns#"
   xmlns:rdf="http://www.w3.org/1999/02/22-rdf-syntax-ns#"
   xmlns:svg="http://www.w3.org/2000/svg"
   xmlns="http://www.w3.org/2000/svg"
   xmlns:sodipodi="http://sodipodi.sourceforge.net/DTD/sodipodi-0.dtd"
   xmlns:inkscape="http://www.inkscape.org/namespaces/inkscape"
   version="1.1"
   width="813.75842"
   height="377.48068"
   viewBox="0 0 813.75842 377.48068"
   overflow="visible"
   enable-background="new 0 0 591 570"
   xml:space="preserve"
   id="svg9051"
   sodipodi:docname="simpleshark.svg"
   style="overflow:visible"
   inkscape:version="0.92.1 r15371"><metadata
   id="metadata9057"><rdf:RDF><cc:Work
       rdf:about=""><dc:format>image/svg+xml</dc:format><dc:type
         rdf:resource="http://purl.org/dc/dcmitype/StillImage" /><dc:title></dc:title></cc:Work></rdf:RDF></metadata><defs
   id="defs9055" /><sodipodi:namedview
   pagecolor="#ffffff"
   bordercolor="#666666"
   borderopacity="1"
   objecttolerance="10"
   gridtolerance="10"
   guidetolerance="10"
   inkscape:pageopacity="0"
   inkscape:pageshadow="2"
   inkscape:window-width="1366"
   inkscape:window-height="706"
   id="namedview9053"
   showgrid="false"
   fit-margin-top="0"
   fit-margin-left="0"
   fit-margin-right="0"
   fit-margin-bottom="0"
   inkscape:zoom="0.41403509"
   inkscape:cx="540.50736"
   inkscape:cy="107.24479"
   inkscape:window-x="-8"
   inkscape:window-y="-8"
   inkscape:window-maximized="1"
   inkscape:current-layer="Layer_1" />
<g
   id="Layer_1"
   transform="translate(245.00736,-14.764116)">
	
	<g
   id="g9047"
   transform="matrix(3.0318027,0,0,4.1073915,-1156.3424,-47.06472)">
		
			<linearGradient
   id="XMLID_28_"
   gradientUnits="userSpaceOnUse"
   x1="15338.537"
   y1="2054.9072"
   x2="17796.139"
   y2="2054.9072"
   gradientTransform="matrix(-0.001,-0.0076,0.1094,-0.015,234.247,262.5496)">
			<stop
   offset="0"
   style="stop-color:#D1D3D4"
   id="stop8652" />
			<stop
   offset="1"
   style="stop-color:#808284"
   id="stop8654" />
		</linearGradient>
		<path
   d="m 551.9,55.87 c 20.4,-33.15 22.05,-41.55 4.65,-25.2 -21.75,28.351 -37.05,41.101 -45.6,38.25 -2.851,-0.6 -6,-3 -9.45,-7.2 -1.65,-3.15 -5.7,-3.15 -12.45,0 -2.25,1.95 -12.3,-1.05 -30.15,-8.7 -9.15,-4.95 -19.35,-8.4 -30.45,-10.2 -5.101,-0.9 -10.5,-1.35 -16.2,-1.5 -5.25,0.15 -10.8,0.6 -16.5,1.2 -18,2.25 -37.8,6.75 -59.4,13.8 -23.399,6.3 -35.1,11.25 -35.25,14.85 7.05,-1.05 14.851,-2.1 23.25,-2.85 -1.5,0 -2.399,-0.3 -2.399,-0.75 0,-1.05 0.75,-1.65 2.399,-1.5 0.75,0 1.2,0.3 1.2,0.9 0,0.6 -0.3,1.05 -0.9,1.2 35.55,-3.45 71.1,-2.55 106.35,3 14.4,3 14.1,1.2 -0.9,-5.399 -17.1,-4.8 -15.45,-5.7 5.25,-2.7 22.2,4.35 44.4,8.1 66.75,11.25 16.95,0.15 23.851,1.65 21,4.5 l -5.7,2.4 c 1.65,1.35 3,3 4.05,5.1 18.149,22.95 25.2,26.25 21,10.05 C 537.65,81.82 540.8,68.32 551.9,55.87 Z"
   id="path8657"
   style="fill:url(#XMLID_28_)"
   inkscape:connector-curvature="0" />
		<path
   d="m 480.35,82.271 c 12.45,7.2 18.3,8.7 17.7,4.5 v -6.3 c 8.4,-2.85 14.85,-2.55 19.35,0.75 l 5.7,-2.4 c 2.851,-2.85 -4.05,-4.35 -21,-4.5 -22.35,-3.15 -44.55,-6.9 -66.75,-11.25 -20.7,-3 -22.35,-2.1 -5.25,2.7 15,6.6 15.3,8.399 0.9,5.399 -35.25,-5.55 -70.8,-6.45 -106.35,-3 -0.15,0 -0.15,0 -0.3,0.15 -8.399,0.75 -16.2,1.8 -23.25,2.85 -0.149,1.5 1.65,2.851 5.55,3.9 8.55,2.85 14.85,4.05 18.75,3.6 1.2,-0.3 4.2,-0.899 9.15,-1.8 -4.95,0.9 -7.95,1.5 -9.15,1.8 -5.7,2.101 3.9,4.351 29.1,6.45 h 9 c -4.8,-6.45 3.9,-8.7 26.1,-6.75 -0.6,2.85 -1.05,5.7 -1.2,8.7 l 59.7,-2.55 c 4.95,5.85 9.601,7.5 13.95,4.95 5.4,-1.95 6.15,-4.35 2.55,-7.2 h 15.75 z m -123,-14.25 c 1.05,3.75 1.05,8.399 0,13.8 1.05,-5.401 1.05,-10.05 0,-13.8 z m 2.1,0.299 c 1.05,3.75 1.05,8.4 0,13.8 1.05,-5.4 1.05,-10.05 0,-13.8 z m -6.75,-0.9 c 1.05,3.75 1.05,8.101 -0.3,12.9 1.35,-4.799 1.35,-9.15 0.3,-12.9 z m -2.4,0.15 c 1.2,3.9 1.05,7.95 -0.15,12 1.2,-4.049 1.35,-8.1 0.15,-12 z m 4.5,0.15 c 1.2,3.75 1.05,8.1 -0.3,12.75 1.35,-4.65 1.5,-9 0.3,-12.75 z"
   id="path8659"
   inkscape:connector-curvature="0"
   style="fill:#ffffff" />
		
			<linearGradient
   id="XMLID_29_"
   gradientUnits="userSpaceOnUse"
   x1="15338.453"
   y1="1856.6748"
   x2="17796.068"
   y2="1856.6748"
   gradientTransform="matrix(-0.001,-0.0076,0.1094,-0.015,234.247,262.5496)">
			<stop
   offset="0"
   style="stop-color:#D1D3D4"
   id="stop8661" />
			<stop
   offset="1"
   style="stop-color:#808284"
   id="stop8663" />
		</linearGradient>
		<path
   d="m 428.45,42.82 c -5.851,-7.65 -9,-14.25 -9.45,-19.5 -0.15,-14.85 -7.95,-8.4 -23.25,19.2 5.7,-0.601 11.25,-1.05 16.5,-1.2 5.7,0.15 11.1,0.6 16.2,1.5 z"
   id="path8666"
   style="fill:url(#XMLID_29_)"
   inkscape:connector-curvature="0" />
		
			<linearGradient
   id="XMLID_30_"
   gradientUnits="userSpaceOnUse"
   x1="15338.561"
   y1="1487.2515"
   x2="17796.156"
   y2="1487.2515"
   gradientTransform="matrix(-0.001,-0.0076,0.1094,-0.015,234.247,262.5496)">
			<stop
   offset="0"
   style="stop-color:#D1D3D4"
   id="stop8668" />
			<stop
   offset="1"
   style="stop-color:#808284"
   id="stop8670" />
		</linearGradient>
		<path
   d="m 389.6,78.37 c -22.2,-1.95 -30.899,0.3 -26.1,6.75 17.55,17.4 26.25,21.75 26.1,13.05 -0.899,-3.75 -1.35,-7.5 -1.2,-11.1 0.15,-3 0.6,-5.85 1.2,-8.7 z"
   id="path8673"
   style="fill:url(#XMLID_30_)"
   inkscape:connector-curvature="0" />
		<path
   d="m 324.35,68.32 c 0.15,-0.15 0.15,-0.15 0.3,-0.15 0.6,-0.149 0.9,-0.6 0.9,-1.2 0,-0.6 -0.45,-0.9 -1.2,-0.9 -1.649,-0.15 -2.399,0.45 -2.399,1.5 -0.001,0.451 0.899,0.75 2.399,0.75 z"
   id="path8675"
   inkscape:connector-curvature="0" />
		
			<linearGradient
   id="XMLID_31_"
   gradientUnits="userSpaceOnUse"
   x1="-849.323"
   y1="2142.6035"
   x2="1608.2773"
   y2="2142.6035"
   gradientTransform="matrix(-0.0042,-0.0156,0.0926,-0.0248,239.3813,475.1415)">
			<stop
   offset="0"
   style="stop-color:#D1D3D4"
   id="stop8677" />
			<stop
   offset="1"
   style="stop-color:#808284"
   id="stop8679" />
		</linearGradient>
		
		
			<linearGradient
   id="XMLID_32_"
   gradientUnits="userSpaceOnUse"
   x1="-849.24237"
   y1="1995.0845"
   x2="1608.3145"
   y2="1995.0845"
   gradientTransform="matrix(-0.0042,-0.0156,0.0926,-0.0248,239.3813,475.1415)">
			<stop
   offset="0"
   style="stop-color:#D1D3D4"
   id="stop8684" />
			<stop
   offset="1"
   style="stop-color:#808284"
   id="stop8686" />
		</linearGradient>
		
		
			<linearGradient
   id="XMLID_33_"
   gradientUnits="userSpaceOnUse"
   x1="-849.30811"
   y1="2669.1309"
   x2="1608.2944"
   y2="2669.1309"
   gradientTransform="matrix(-0.0042,-0.0156,0.0926,-0.0248,239.3813,475.1415)">
			<stop
   offset="0"
   style="stop-color:#D1D3D4"
   id="stop8691" />
			<stop
   offset="1"
   style="stop-color:#808284"
   id="stop8693" />
		</linearGradient>
		
		
			<linearGradient
   id="XMLID_34_"
   gradientUnits="userSpaceOnUse"
   x1="-849.30298"
   y1="1624.3042"
   x2="1608.2981"
   y2="1624.3042"
   gradientTransform="matrix(-0.0042,-0.0156,0.0926,-0.0248,239.3813,475.1415)">
			<stop
   offset="0"
   style="stop-color:#D1D3D4"
   id="stop8698" />
			<stop
   offset="1"
   style="stop-color:#808284"
   id="stop8700" />
		</linearGradient>
		
		
			<linearGradient
   id="XMLID_35_"
   gradientUnits="userSpaceOnUse"
   x1="-849.32709"
   y1="1549.6792"
   x2="1608.2896"
   y2="1549.6792"
   gradientTransform="matrix(-0.0042,-0.0156,0.0926,-0.0248,239.3813,475.1415)">
			<stop
   offset="0"
   style="stop-color:#D1D3D4"
   id="stop8705" />
			<stop
   offset="1"
   style="stop-color:#808284"
   id="stop8707" />
		</linearGradient>
		
		
			<linearGradient
   id="XMLID_36_"
   gradientUnits="userSpaceOnUse"
   x1="19178.674"
   y1="3993.0957"
   x2="21636.277"
   y2="3993.0957"
   gradientTransform="matrix(0,-0.0049,0.044,0,245.5181,350.0145)">
			<stop
   offset="0"
   style="stop-color:#D1D3D4"
   id="stop8712" />
			<stop
   offset="1"
   style="stop-color:#808284"
   id="stop8714" />
		</linearGradient>
		
		
			<linearGradient
   id="XMLID_37_"
   gradientUnits="userSpaceOnUse"
   x1="19178.773"
   y1="3581.4858"
   x2="21636.377"
   y2="3581.4858"
   gradientTransform="matrix(0,-0.0049,0.044,0,245.5181,350.0145)">
			<stop
   offset="0"
   style="stop-color:#D1D3D4"
   id="stop8719" />
			<stop
   offset="1"
   style="stop-color:#808284"
   id="stop8721" />
		</linearGradient>
		
		
		
		
		
		
			<linearGradient
   id="XMLID_38_"
   gradientUnits="userSpaceOnUse"
   x1="19178.674"
   y1="3858.1748"
   x2="21636.238"
   y2="3858.1748"
   gradientTransform="matrix(0,-0.0049,0.044,0,245.5181,350.0145)">
			<stop
   offset="0"
   style="stop-color:#D1D3D4"
   id="stop8734" />
			<stop
   offset="1"
   style="stop-color:#808284"
   id="stop8736" />
		</linearGradient>
		
		
			<linearGradient
   id="XMLID_39_"
   gradientUnits="userSpaceOnUse"
   x1="19178.773"
   y1="2729.1353"
   x2="21636.373"
   y2="2729.1353"
   gradientTransform="matrix(0,-0.0049,0.044,0,245.5181,350.0145)">
			<stop
   offset="0"
   style="stop-color:#D1D3D4"
   id="stop8741" />
			<stop
   offset="1"
   style="stop-color:#808284"
   id="stop8743" />
		</linearGradient>
		
		
			<linearGradient
   id="XMLID_40_"
   gradientUnits="userSpaceOnUse"
   x1="19178.773"
   y1="4409.8105"
   x2="21636.373"
   y2="4409.8105"
   gradientTransform="matrix(0,-0.0049,0.044,0,245.5181,350.0145)">
			<stop
   offset="0"
   style="stop-color:#D1D3D4"
   id="stop8748" />
			<stop
   offset="1"
   style="stop-color:#808284"
   id="stop8750" />
		</linearGradient>
		
		
			<linearGradient
   id="XMLID_41_"
   gradientUnits="userSpaceOnUse"
   x1="9925.0957"
   y1="1075.3662"
   x2="12382.69"
   y2="1075.3662"
   gradientTransform="matrix(-2e-4,-0.0122,0.0811,-0.0014,36.7046,277.1982)">
			<stop
   offset="0"
   style="stop-color:#D1D3D4"
   id="stop8755" />
			<stop
   offset="1"
   style="stop-color:#808284"
   id="stop8757" />
		</linearGradient>
		
		
		
			<linearGradient
   id="XMLID_42_"
   gradientUnits="userSpaceOnUse"
   x1="9925.1279"
   y1="1093.5728"
   x2="12382.726"
   y2="1093.5728"
   gradientTransform="matrix(-2e-4,-0.0122,0.0811,-0.0014,36.7046,277.1982)">
			<stop
   offset="0"
   style="stop-color:#D1D3D4"
   id="stop8764" />
			<stop
   offset="1"
   style="stop-color:#808284"
   id="stop8766" />
		</linearGradient>
		
		
		
			<linearGradient
   id="XMLID_43_"
   gradientUnits="userSpaceOnUse"
   x1="9925.1123"
   y1="588.33691"
   x2="12382.712"
   y2="588.33691"
   gradientTransform="matrix(-2e-4,-0.0122,0.0811,-0.0014,36.7046,277.1982)">
			<stop
   offset="0"
   style="stop-color:#D1D3D4"
   id="stop8773" />
			<stop
   offset="1"
   style="stop-color:#808284"
   id="stop8775" />
		</linearGradient>
		
		
			<linearGradient
   id="XMLID_44_"
   gradientUnits="userSpaceOnUse"
   x1="9925.1221"
   y1="731.94342"
   x2="12382.716"
   y2="731.94342"
   gradientTransform="matrix(-2e-4,-0.0122,0.0811,-0.0014,36.7046,277.1982)">
			<stop
   offset="0"
   style="stop-color:#D1D3D4"
   id="stop8780" />
			<stop
   offset="1"
   style="stop-color:#808284"
   id="stop8782" />
		</linearGradient>
		
		
		
		
			<linearGradient
   id="XMLID_45_"
   gradientUnits="userSpaceOnUse"
   x1="13246.234"
   y1="793.35687"
   x2="15703.834"
   y2="793.35687"
   gradientTransform="matrix(0.0018,-0.0066,0.0454,0.0122,53.3379,357.1754)">
			<stop
   offset="0"
   style="stop-color:#D1D3D4"
   id="stop8791" />
			<stop
   offset="1"
   style="stop-color:#808284"
   id="stop8793" />
		</linearGradient>
		
		
			<linearGradient
   id="XMLID_46_"
   gradientUnits="userSpaceOnUse"
   x1="13246.234"
   y1="75.862801"
   x2="15703.84"
   y2="75.862801"
   gradientTransform="matrix(0.0018,-0.0066,0.0454,0.0122,53.3379,357.1754)">
			<stop
   offset="0"
   style="stop-color:#D1D3D4"
   id="stop8798" />
			<stop
   offset="1"
   style="stop-color:#808284"
   id="stop8800" />
		</linearGradient>
		
		
			<linearGradient
   id="XMLID_47_"
   gradientUnits="userSpaceOnUse"
   x1="13246.258"
   y1="820.98578"
   x2="15703.88"
   y2="820.98578"
   gradientTransform="matrix(0.0018,-0.0066,0.0454,0.0122,53.3379,357.1754)">
			<stop
   offset="0"
   style="stop-color:#D1D3D4"
   id="stop8805" />
			<stop
   offset="1"
   style="stop-color:#808284"
   id="stop8807" />
		</linearGradient>
		
		
			<linearGradient
   id="XMLID_48_"
   gradientUnits="userSpaceOnUse"
   x1="13246.215"
   y1="-128.86501"
   x2="15703.793"
   y2="-128.86501"
   gradientTransform="matrix(0.0018,-0.0066,0.0454,0.0122,53.3379,357.1754)">
			<stop
   offset="0"
   style="stop-color:#D1D3D4"
   id="stop8812" />
			<stop
   offset="1"
   style="stop-color:#808284"
   id="stop8814" />
		</linearGradient>
		
		
		
			<linearGradient
   id="XMLID_49_"
   gradientUnits="userSpaceOnUse"
   x1="13246.064"
   y1="1056.6162"
   x2="15703.734"
   y2="1056.6162"
   gradientTransform="matrix(0.0018,-0.0066,0.0454,0.0122,53.3379,357.1754)">
			<stop
   offset="0"
   style="stop-color:#D1D3D4"
   id="stop8821" />
			<stop
   offset="1"
   style="stop-color:#808284"
   id="stop8823" />
		</linearGradient>
		
		
			<linearGradient
   id="XMLID_50_"
   gradientUnits="userSpaceOnUse"
   x1="-7.8007998"
   y1="1322.6045"
   x2="2449.8003"
   y2="1322.6045"
   gradientTransform="matrix(-0.0058,-0.0214,0.0626,-0.0168,49.2184,482.6162)">
			<stop
   offset="0"
   style="stop-color:#D1D3D4"
   id="stop8828" />
			<stop
   offset="1"
   style="stop-color:#808284"
   id="stop8830" />
		</linearGradient>
		
		
			<linearGradient
   id="XMLID_51_"
   gradientUnits="userSpaceOnUse"
   x1="-7.8462"
   y1="2249.1177"
   x2="2449.7856"
   y2="2249.1177"
   gradientTransform="matrix(-0.0058,-0.0214,0.0626,-0.0168,49.2184,482.6162)">
			<stop
   offset="0"
   style="stop-color:#D1D3D4"
   id="stop8835" />
			<stop
   offset="1"
   style="stop-color:#808284"
   id="stop8837" />
		</linearGradient>
		
		
			<linearGradient
   id="XMLID_52_"
   gradientUnits="userSpaceOnUse"
   x1="-7.7523999"
   y1="1529.1611"
   x2="2449.8269"
   y2="1529.1611"
   gradientTransform="matrix(-0.0058,-0.0214,0.0626,-0.0168,49.2184,482.6162)">
			<stop
   offset="0"
   style="stop-color:#D1D3D4"
   id="stop8842" />
			<stop
   offset="1"
   style="stop-color:#808284"
   id="stop8844" />
		</linearGradient>
		
		
			<linearGradient
   id="XMLID_53_"
   gradientUnits="userSpaceOnUse"
   x1="-7.8813"
   y1="1081.7637"
   x2="2449.751"
   y2="1081.7637"
   gradientTransform="matrix(-0.0058,-0.0214,0.0626,-0.0168,49.2184,482.6162)">
			<stop
   offset="0"
   style="stop-color:#D1D3D4"
   id="stop8849" />
			<stop
   offset="1"
   style="stop-color:#808284"
   id="stop8851" />
		</linearGradient>
		
		
			<linearGradient
   id="XMLID_54_"
   gradientUnits="userSpaceOnUse"
   x1="-7.7781"
   y1="998.50781"
   x2="2449.812"
   y2="998.50781"
   gradientTransform="matrix(-0.0058,-0.0214,0.0626,-0.0168,49.2184,482.6162)">
			<stop
   offset="0"
   style="stop-color:#D1D3D4"
   id="stop8856" />
			<stop
   offset="1"
   style="stop-color:#808284"
   id="stop8858" />
		</linearGradient>
		
		
		<path
   d="m 517.4,81.22 5.7,-2.4 c 2.851,-2.85 -4.05,-4.35 -21,-4.5 -22.35,-3.15 -44.55,-6.9 -66.75,-11.25 -20.7,-3 -22.35,-2.1 -5.25,2.7 15,6.6 15.3,8.399 0.9,5.399 -35.25,-5.55 -70.8,-6.45 -106.35,-3"
   id="path8865"
   inkscape:connector-curvature="0"
   style="fill:none;stroke:#000000;stroke-width:0.5;stroke-linecap:round;stroke-linejoin:round" />
		
		
		
		
		
		
		<path
   d="m 357.35,81.82 c 1.05,-5.4 1.05,-10.05 0,-13.8"
   id="path8879"
   inkscape:connector-curvature="0"
   style="fill:none;stroke:#000000;stroke-width:0.5;stroke-linecap:round;stroke-linejoin:round" />
		<path
   d="m 359.45,82.12 c 1.05,-5.4 1.05,-10.05 0,-13.8"
   id="path8881"
   inkscape:connector-curvature="0"
   style="fill:none;stroke:#000000;stroke-width:0.5;stroke-linecap:round;stroke-linejoin:round" />
		<path
   d="m 324.35,68.32 c -8.399,0.75 -16.2,1.8 -23.25,2.85"
   id="path8883"
   inkscape:connector-curvature="0"
   style="fill:none;stroke:#000000;stroke-width:0.5;stroke-linecap:round;stroke-linejoin:round" />
		
		
		
		<path
   d="m 352.4,80.32 c 1.35,-4.8 1.35,-9.15 0.3,-12.9"
   id="path8891"
   inkscape:connector-curvature="0"
   style="fill:none;stroke:#000000;stroke-width:0.5;stroke-linecap:round;stroke-linejoin:round" />
		<path
   d="m 350.15,79.57 c 1.2,-4.05 1.35,-8.1 0.15,-12"
   id="path8893"
   inkscape:connector-curvature="0"
   style="fill:none;stroke:#000000;stroke-width:0.5;stroke-linecap:round;stroke-linejoin:round" />
		
		
		<path
   d="m 354.5,80.47 c 1.35,-4.65 1.5,-9 0.3,-12.75"
   id="path8899"
   inkscape:connector-curvature="0"
   style="fill:none;stroke:#000000;stroke-width:0.5;stroke-linecap:round;stroke-linejoin:round" />
		
		
		
		
		
		
		
		
		
		
		
		
		
		
		
		
		
		
		
		
		
		
		<path
   d="m 334.55,76.87 c -4.95,0.9 -7.95,1.5 -9.15,1.8"
   id="path8945"
   inkscape:connector-curvature="0"
   style="fill:none;stroke:#000000;stroke-linecap:round;stroke-linejoin:round" />
		<path
   d="m 363.5,85.12 h -9 c -25.2,-2.1 -34.8,-4.35 -29.1,-6.45"
   id="path8947"
   inkscape:connector-curvature="0"
   style="fill:none;stroke:#000000;stroke-linecap:round;stroke-linejoin:round" />
		<path
   d="m 428.45,42.82 c 11.1,1.8 21.3,5.25 30.45,10.2 17.85,7.649 27.9,10.649 30.15,8.7 6.75,-3.15 10.8,-3.15 12.45,0 3.45,4.2 6.6,6.6 9.45,7.2 8.55,2.851 23.85,-9.899 45.6,-38.25 17.4,-16.35 15.75,-7.95 -4.65,25.2 -11.1,12.45 -14.25,25.95 -9.45,40.5 4.2,16.2 -2.851,12.9 -21,-10.05 -1.05,-2.1 -2.4,-3.75 -4.05,-5.1 -4.5,-3.3 -10.95,-3.6 -19.35,-0.75 v 6.3 c 0.6,4.2 -5.25,2.7 -17.7,-4.5 H 464.6 c 3.601,2.85 2.851,5.25 -2.55,7.2 -4.35,2.55 -9,0.9 -13.95,-4.95 l -59.7,2.55"
   id="path8949"
   inkscape:connector-curvature="0"
   style="fill:none;stroke:#000000;stroke-linecap:round;stroke-linejoin:round" />
		<path
   d="m 325.4,78.67 c -3.9,0.45 -10.2,-0.75 -18.75,-3.6 -3.9,-1.05 -5.7,-2.4 -5.55,-3.9 0.15,-3.6 11.851,-8.55 35.25,-14.85 21.601,-7.05 41.4,-11.55 59.4,-13.8"
   id="path8951"
   inkscape:connector-curvature="0"
   style="fill:none;stroke:#000000;stroke-linecap:round;stroke-linejoin:round" />
		
		
		
		
		<path
   d="m 388.4,87.07 c -0.15,3.6 0.3,7.35 1.2,11.1 0.15,8.7 -8.55,4.351 -26.1,-13.05"
   id="path8961"
   inkscape:connector-curvature="0"
   style="fill:none;stroke:#000000;stroke-linecap:round;stroke-linejoin:round" />
		
		<path
   d="m 363.5,85.12 c -4.8,-6.45 3.9,-8.7 26.1,-6.75 -0.6,2.85 -1.05,5.7 -1.2,8.7"
   id="path8965"
   inkscape:connector-curvature="0"
   style="fill:none;stroke:#000000;stroke-linecap:round;stroke-linejoin:round" />
		
		<path
   d="m 395.75,42.521 c 5.7,-0.601 11.25,-1.05 16.5,-1.2 5.7,0.15 11.1,0.6 16.2,1.5"
   id="path8969"
   inkscape:connector-curvature="0"
   style="fill:none;stroke:#000000;stroke-linecap:round;stroke-linejoin:round" />
		<path
   d="m 428.45,42.82 c -5.851,-7.65 -9,-14.25 -9.45,-19.5 -0.15,-14.85 -7.95,-8.4 -23.25,19.2"
   id="path8971"
   inkscape:connector-curvature="0"
   style="fill:none;stroke:#000000;stroke-linecap:round;stroke-linejoin:round" />
		
		
		
		
		
		
		
		
		
		
		
		
		
		
		
		
		
		
		
		
		
		
		
		
		
		
		
		
		
		
		
		
		
		
		
		
		
	</g>
</g>
<g
   id="Layer_2"
   transform="translate(245.00736,-14.764116)">
</g>
</svg>